<?xml version="1.0" encoding="UTF-8" standalone="yes"?>
<!-- Created with qrencode 4.1.1 (https://fukuchi.org/works/qrencode/index.html) -->
<svg width="3.70cm" height="3.70cm" viewBox="0 0 35 35" preserveAspectRatio="none" version="1.1" xmlns="http://www.w3.org/2000/svg">
    <g id="QRcode">
        <rect x="0" y="0" width="35" height="35" fill="#ffffff"/>
        <path style="stroke:#133e71" transform="translate(1,1.5)" d="M0,0h7M8,0h1M10,0h1M13,0h2M16,0h3M20,0h1M23,0h2M26,0h7M0,1h1M6,1h1M8,1h1M10,1h1M13,1h2M17,1h3M21,1h1M24,1h1M26,1h1M32,1h1M0,2h1M2,2h3M6,2h1M8,2h1M10,2h2M13,2h4M21,2h4M26,2h1M28,2h3M32,2h1M0,3h1M2,3h3M6,3h1M9,3h2M13,3h3M17,3h1M19,3h1M22,3h2M26,3h1M28,3h3M32,3h1M0,4h1M2,4h3M6,4h1M11,4h3M15,4h1M17,4h1M20,4h3M24,4h1M26,4h1M28,4h3M32,4h1M0,5h1M6,5h1M8,5h1M10,5h2M13,5h6M20,5h2M24,5h1M26,5h1M32,5h1M0,6h7M8,6h1M10,6h1M12,6h1M14,6h1M16,6h1M18,6h1M20,6h1M22,6h1M24,6h1M26,6h7M8,7h3M12,7h1M14,7h2M17,7h1M19,7h1M21,7h3M2,8h3M6,8h1M8,8h1M11,8h2M14,8h2M17,8h1M19,8h2M22,8h1M24,8h4M30,8h3M0,9h4M5,9h1M13,9h1M15,9h7M23,9h1M25,9h2M29,9h1M31,9h2M0,10h3M6,10h1M8,10h2M12,10h1M16,10h3M20,10h3M24,10h4M31,10h1M0,11h1M2,11h2M9,11h3M17,11h3M22,11h3M26,11h1M29,11h4M1,12h2M6,12h1M8,12h1M10,12h7M18,12h4M24,12h2M29,12h1M31,12h1M0,13h3M4,13h1M8,13h2M13,13h1M17,13h1M22,13h2M26,13h2M30,13h1M32,13h1M0,14h2M6,14h2M10,14h2M13,14h1M16,14h1M18,14h1M22,14h1M24,14h3M29,14h1M31,14h1M0,15h1M3,15h1M9,15h2M12,15h2M15,15h1M17,15h1M21,15h3M25,15h4M30,15h2M0,16h2M4,16h1M6,16h5M13,16h6M20,16h1M25,16h1M27,16h2M31,16h2M1,17h2M5,17h1M7,17h4M12,17h5M18,17h1M20,17h2M23,17h2M26,17h2M31,17h2M0,18h2M5,18h6M13,18h5M19,18h1M21,18h2M30,18h2M1,19h5M8,19h6M20,19h2M23,19h2M29,19h2M1,20h2M4,20h3M8,20h1M13,20h3M17,20h2M20,20h1M22,20h1M27,20h3M31,20h1M0,21h2M7,21h1M12,21h5M18,21h3M23,21h2M26,21h2M29,21h2M32,21h1M0,22h1M2,22h3M6,22h2M9,22h1M11,22h1M13,22h5M19,22h1M22,22h3M28,22h2M0,23h1M2,23h1M4,23h2M7,23h3M11,23h2M15,23h1M18,23h2M21,23h1M29,23h4M0,24h1M2,24h2M5,24h2M8,24h2M11,24h1M15,24h2M19,24h1M22,24h1M24,24h6M31,24h2M8,25h7M16,25h5M23,25h2M28,25h1M30,25h3M0,26h7M9,26h1M14,26h2M17,26h3M21,26h1M23,26h2M26,26h1M28,26h1M31,26h1M0,27h1M6,27h1M12,27h1M17,27h1M19,27h1M23,27h2M28,27h5M0,28h1M2,28h3M6,28h1M8,28h2M11,28h1M13,28h3M17,28h1M20,28h3M24,28h6M31,28h2M0,29h1M2,29h3M6,29h1M8,29h1M11,29h1M13,29h1M16,29h5M25,29h1M28,29h2M31,29h1M0,30h1M2,30h3M6,30h1M8,30h6M15,30h1M18,30h1M20,30h1M24,30h3M29,30h1M0,31h1M6,31h1M9,31h1M11,31h1M15,31h1M23,31h1M27,31h1M29,31h2M0,32h7M9,32h1M12,32h1M15,32h2M18,32h1M20,32h6M31,32h1"/>
        <rect x="11.2" y="11.2" width="12.6" height="12.6" rx="3.2" fill="#ffffff"/>
        <svg x="11.7" y="11.7" width="11.6" height="11.6" viewBox="0 0 64 64" aria-hidden="true">
            <rect x="0.75" y="0.75" width="62.5" height="62.5" rx="18" fill="#ffffff" stroke="#dbe5ef" stroke-width="1.5"/>
            <circle cx="22" cy="17" r="7" fill="#4da0d8"/>
            <circle cx="39" cy="18" r="6" fill="#f45c61"/>
            <circle cx="22" cy="31" r="5" fill="#9b6bb3"/>
            <circle cx="40" cy="34" r="10" fill="#97cf30"/>
            <text x="32" y="55" text-anchor="middle" font-family="Arial, Helvetica, sans-serif" font-size="18" font-weight="800" fill="#111111">Avito</text>
        </svg>
    </g>
</svg>
