<?xml version="1.0" encoding="UTF-8" standalone="yes"?>
<!-- Created with qrencode 4.1.1 (https://fukuchi.org/works/qrencode/index.html) -->
<svg width="3.28cm" height="3.28cm" viewBox="0 0 31 31" preserveAspectRatio="none" version="1.1" xmlns="http://www.w3.org/2000/svg">
    <g id="QRcode">
        <rect x="0" y="0" width="31" height="31" fill="#ffffff"/>
        <path style="stroke:#133e71" transform="translate(1,1.5)" d="M0,0h7M8,0h1M11,0h3M15,0h4M22,0h7M0,1h1M6,1h1M8,1h2M11,1h2M14,1h1M16,1h1M18,1h2M22,1h1M28,1h1M0,2h1M2,2h3M6,2h1M9,2h3M16,2h5M22,2h1M24,2h3M28,2h1M0,3h1M2,3h3M6,3h1M8,3h1M10,3h2M13,3h3M18,3h1M22,3h1M24,3h3M28,3h1M0,4h1M2,4h3M6,4h1M8,4h2M11,4h3M16,4h1M18,4h1M20,4h1M22,4h1M24,4h3M28,4h1M0,5h1M6,5h1M8,5h1M10,5h1M19,5h1M22,5h1M28,5h1M0,6h7M8,6h1M10,6h1M12,6h1M14,6h1M16,6h1M18,6h1M20,6h1M22,6h7M9,7h3M13,7h3M17,7h3M3,8h1M6,8h1M10,8h2M14,8h1M17,8h3M23,8h3M27,8h2M0,9h4M8,9h1M10,9h3M14,9h6M22,9h1M26,9h1M28,9h1M6,10h1M11,10h1M13,10h1M15,10h2M19,10h2M22,10h3M26,10h2M0,11h2M3,11h3M7,11h2M11,11h1M17,11h3M21,11h2M24,11h4M4,12h3M9,12h1M14,12h1M17,12h1M20,12h1M22,12h2M3,13h3M9,13h3M13,13h3M17,13h1M19,13h3M23,13h1M25,13h1M27,13h1M1,14h1M3,14h1M6,14h1M10,14h1M12,14h1M14,14h1M17,14h2M22,14h1M27,14h2M0,15h2M5,15h1M7,15h1M13,15h2M20,15h1M23,15h1M28,15h1M0,16h5M6,16h3M12,16h1M16,16h1M18,16h2M21,16h1M27,16h2M1,17h2M4,17h1M7,17h1M9,17h1M11,17h1M14,17h2M17,17h1M22,17h2M27,17h2M0,18h1M3,18h2M6,18h1M8,18h1M11,18h2M16,18h2M21,18h1M25,18h1M27,18h2M5,19h1M7,19h3M13,19h1M15,19h1M18,19h1M20,19h1M24,19h2M27,19h1M0,20h1M2,20h6M12,20h1M14,20h1M17,20h1M20,20h9M8,21h2M11,21h2M15,21h2M20,21h1M24,21h1M27,21h2M0,22h7M9,22h4M15,22h2M18,22h1M20,22h1M22,22h1M24,22h4M0,23h1M6,23h1M9,23h2M13,23h2M17,23h2M20,23h1M24,23h1M26,23h1M28,23h1M0,24h1M2,24h3M6,24h1M10,24h1M16,24h2M20,24h6M28,24h1M0,25h1M2,25h3M6,25h1M8,25h1M10,25h1M12,25h1M14,25h1M16,25h2M19,25h4M24,25h2M28,25h1M0,26h1M2,26h3M6,26h1M10,26h1M16,26h1M18,26h3M24,26h2M28,26h1M0,27h1M6,27h1M12,27h1M14,27h2M18,27h4M23,27h1M27,27h1M0,28h7M11,28h5M17,28h2M20,28h3M24,28h2M27,28h1"/>
        <rect x="10.15" y="10.15" width="10.7" height="10.7" rx="3" fill="#ffffff"/>
        <svg x="10.9" y="10.9" width="9.2" height="9.2" viewBox="0 0 24 24" aria-hidden="true">
            <rect x="0" y="0" width="24" height="24" rx="6" fill="#2787f5"/>
            <path fill="#ffffff" d="M18.14581,16.27081H16.6875c-.55206,0-.71875-.44793-1.70831-1.4375-.86463-.83331-1.22919-.9375-1.44794-.9375-.30206,0-.38544.08332-.38544.5v1.3125c0,.35419-.11456.5625-1.04162.5625a5.69214,5.69214,0,0,1-4.44794-2.66668A11.62611,11.62611,0,0,1,5.35419,8.77081c0-.21875.08331-.41668.5-.41668H7.3125c.375,0,.51044.16668.65625.55212.70831,2.08331,1.91669,3.89581,2.40625,3.89581.1875,0,.27081-.08331.27081-.55206V10.10413c-.0625-.97913-.58331-1.0625-.58331-1.41663a.36008.36008,0,0,1,.375-.33337h2.29169c.3125,0,.41662.15625.41662.53125v2.89587c0,.3125.13544.41663.22919.41663.1875,0,.33331-.10413.67706-.44788a11.99877,11.99877,0,0,0,1.79169-2.97919.62818.62818,0,0,1,.63544-.41668H17.9375c.4375,0,.53125.21875.4375.53125A18.20507,18.20507,0,0,1,16.41669,12.25c-.15625.23956-.21875.36456,0,.64581.14581.21875.65625.64582,1,1.05207a6.48553,6.48553,0,0,1,1.22912,1.70837C18.77081,16.0625,18.5625,16.27081,18.14581,16.27081Z"/>
        </svg>
    </g>
</svg>
